<svg width="22" height="22" viewBox="0 0 22 22" fill="none" xmlns="http://www.w3.org/2000/svg">
  <g clip-path="url(#clip0_1888_9213)">
    <path
      d="M18.3333 0H3.66667C2.69421 0 1.76158 0.386308 1.07394 1.07394C0.386308 1.76158 0 2.69421 0 3.66667L0 14.6667C0 15.6391 0.386308 16.5718 1.07394 17.2594C1.76158 17.947 2.69421 18.3333 3.66667 18.3333H6.325L10.4051 21.7828C10.5706 21.9228 10.7804 21.9997 10.9972 21.9997C11.2141 21.9997 11.4239 21.9228 11.5894 21.7828L15.675 18.3333H18.3333C19.3058 18.3333 20.2384 17.947 20.9261 17.2594C21.6137 16.5718 22 15.6391 22 14.6667V3.66667C22 2.69421 21.6137 1.76158 20.9261 1.07394C20.2384 0.386308 19.3058 0 18.3333 0ZM20.1667 14.6667C20.1667 15.1529 19.9735 15.6192 19.6297 15.963C19.2859 16.3068 18.8196 16.5 18.3333 16.5H15.675C15.2417 16.5001 14.8224 16.6537 14.4916 16.9336L11 19.8825L7.51025 16.9336C7.17893 16.6533 6.75895 16.4997 6.325 16.5H3.66667C3.18044 16.5 2.71412 16.3068 2.3703 15.963C2.02649 15.6192 1.83333 15.1529 1.83333 14.6667V3.66667C1.83333 3.18044 2.02649 2.71412 2.3703 2.3703C2.71412 2.02649 3.18044 1.83333 3.66667 1.83333H18.3333C18.8196 1.83333 19.2859 2.02649 19.6297 2.3703C19.9735 2.71412 20.1667 3.18044 20.1667 3.66667V14.6667Z"
      fill="#160B57" />
    <path
      d="M6.41667 6.41634H11C11.2431 6.41634 11.4763 6.31976 11.6482 6.14786C11.8201 5.97595 11.9167 5.74279 11.9167 5.49967C11.9167 5.25656 11.8201 5.0234 11.6482 4.85149C11.4763 4.67959 11.2431 4.58301 11 4.58301H6.41667C6.17355 4.58301 5.94039 4.67959 5.76849 4.85149C5.59658 5.0234 5.5 5.25656 5.5 5.49967C5.5 5.74279 5.59658 5.97595 5.76849 6.14786C5.94039 6.31976 6.17355 6.41634 6.41667 6.41634Z"
      fill="#160B57" />
    <path
      d="M15.5833 8.25H6.41667C6.17355 8.25 5.94039 8.34658 5.76849 8.51849C5.59658 8.69039 5.5 8.92355 5.5 9.16667C5.5 9.40978 5.59658 9.64294 5.76849 9.81485C5.94039 9.98676 6.17355 10.0833 6.41667 10.0833H15.5833C15.8264 10.0833 16.0596 9.98676 16.2315 9.81485C16.4034 9.64294 16.5 9.40978 16.5 9.16667C16.5 8.92355 16.4034 8.69039 16.2315 8.51849C16.0596 8.34658 15.8264 8.25 15.5833 8.25Z"
      fill="#160B57" />
    <path
      d="M15.5833 11.917H6.41667C6.17355 11.917 5.94039 12.0136 5.76849 12.1855C5.59658 12.3574 5.5 12.5905 5.5 12.8337C5.5 13.0768 5.59658 13.3099 5.76849 13.4818C5.94039 13.6537 6.17355 13.7503 6.41667 13.7503H15.5833C15.8264 13.7503 16.0596 13.6537 16.2315 13.4818C16.4034 13.3099 16.5 13.0768 16.5 12.8337C16.5 12.5905 16.4034 12.3574 16.2315 12.1855C16.0596 12.0136 15.8264 11.917 15.5833 11.917Z"
      fill="#160B57" />
  </g>
  <defs>
    <clipPath id="clip0_1888_9213">
      <rect width="22" height="22" fill="white" />
    </clipPath>
  </defs>
</svg>
  