<svg width="22" height="22" viewBox="0 0 22 22" fill="none" xmlns="http://www.w3.org/2000/svg">
  <g clip-path="url(#clip0_1961_10307)">
    <path
      d="M13.75 16.5003H3.66667C2.69421 16.5003 1.76158 16.114 1.07394 15.4264C0.386308 14.7387 0 13.8061 0 12.8337V5.50033C0 4.28475 0.482886 3.11896 1.34243 2.25942C2.20197 1.39988 3.36776 0.916992 4.58333 0.916992H9.16667C9.76856 0.916992 10.3646 1.03554 10.9206 1.26588C11.4767 1.49621 11.982 1.83382 12.4076 2.25942C12.8332 2.68502 13.1708 3.19028 13.4011 3.74636C13.6314 4.30244 13.75 4.89843 13.75 5.50033V16.5003ZM22 10.0837V9.16699C22 8.5651 21.8814 7.9691 21.6511 7.41303C21.4208 6.85695 21.0832 6.35169 20.6576 5.92609C20.232 5.50048 19.7267 5.16288 19.1706 4.93254C18.6146 4.70221 18.0186 4.58366 17.4167 4.58366H15.5833V10.0837H22ZM15.5833 11.917V16.5003H18.3333C19.3058 16.5003 20.2384 16.114 20.9261 15.4264C21.6137 14.7387 22 13.8061 22 12.8337V11.917H15.5833ZM3.71983 18.3337C3.68625 18.4842 3.66844 18.6378 3.66667 18.792C3.66667 19.3998 3.90811 19.9827 4.33788 20.4124C4.76765 20.8422 5.35055 21.0837 5.95833 21.0837C6.56612 21.0837 7.14902 20.8422 7.57879 20.4124C8.00856 19.9827 8.25 19.3998 8.25 18.792C8.24823 18.6378 8.23041 18.4842 8.19683 18.3337H3.71983ZM13.8032 18.3337C13.7696 18.4842 13.7518 18.6378 13.75 18.792C13.75 19.3998 13.9914 19.9827 14.4212 20.4124C14.851 20.8422 15.4339 21.0837 16.0417 21.0837C16.6495 21.0837 17.2323 20.8422 17.6621 20.4124C18.0919 19.9827 18.3333 19.3998 18.3333 18.792C18.3316 18.6378 18.3137 18.4842 18.2802 18.3337H13.8032Z"
      fill="#0D0635" />
  </g>
  <defs>
    <clipPath id="clip0_1961_10307">
      <rect width="22" height="22" fill="white" />
    </clipPath>
  </defs>
</svg>
  