<svg width="25" height="25" viewBox="0 0 25 25" fill="none" xmlns="http://www.w3.org/2000/svg">
  <path
    d="M8.95848 10.2912L13.7397 5.50994C13.9349 5.31593 14.1989 5.20703 14.4741 5.20703C14.7493 5.20703 15.0133 5.31593 15.2085 5.50994C15.3061 5.60678 15.3836 5.72199 15.4365 5.84892C15.4894 5.97586 15.5166 6.11201 15.5166 6.24952C15.5166 6.38704 15.4894 6.52319 15.4365 6.65012C15.3836 6.77706 15.3061 6.89227 15.2085 6.98911L10.4168 11.7599C10.3192 11.8568 10.2417 11.972 10.1888 12.0989C10.1359 12.2259 10.1087 12.362 10.1087 12.4995C10.1087 12.637 10.1359 12.7732 10.1888 12.9001C10.2417 13.0271 10.3192 13.1423 10.4168 13.2391L15.2085 18.0099C15.4046 18.2047 15.5154 18.4694 15.5163 18.7458C15.5173 19.0223 15.4085 19.2878 15.2137 19.4839C15.0189 19.6801 14.7542 19.7908 14.4778 19.7918C14.2014 19.7927 13.9359 19.6839 13.7397 19.4891L8.95848 14.7079C8.37327 14.1219 8.04456 13.3277 8.04456 12.4995C8.04456 11.6714 8.37327 10.8771 8.95848 10.2912Z"
    fill="black" />
</svg>
  