<svg width="20" height="20" viewBox="0 0 20 20" fill="none" xmlns="http://www.w3.org/2000/svg">
  <g clip-path="url(#clip0_1961_10305)">
    <path
      d="M18.7799 7.05012L12.9474 1.21595C12.1599 0.429284 11.114 -0.00488281 10.0007 -0.00488281C8.88738 -0.00488281 7.84071 0.429284 7.05404 1.21595L1.22154 7.05012C-0.402624 8.67428 -0.402624 11.3168 1.22154 12.941L7.05404 18.7751C7.84071 19.5618 8.88738 19.996 10.0007 19.996C11.114 19.996 12.1599 19.5618 12.9474 18.7751L18.7799 12.941C19.5665 12.1543 19.9999 11.1085 19.9999 9.99595C19.9999 8.88345 19.5665 7.83678 18.7799 7.05012ZM9.16654 5.83345C9.16654 5.37262 9.53988 5.00012 9.99988 5.00012C10.4599 5.00012 10.8332 5.37262 10.8332 5.83345V10.4168C10.8332 10.8776 10.4599 11.2501 9.99988 11.2501C9.53988 11.2501 9.16654 10.8776 9.16654 10.4168V5.83345ZM9.99988 15.0001C9.30988 15.0001 8.74988 14.4401 8.74988 13.7501C8.74988 13.0601 9.30988 12.5001 9.99988 12.5001C10.6899 12.5001 11.2499 13.0601 11.2499 13.7501C11.2499 14.4401 10.6899 15.0001 9.99988 15.0001Z"
      fill="black" />
  </g>
  <defs>
    <clipPath id="clip0_1961_10305">
      <rect width="20" height="20" fill="white" />
    </clipPath>
  </defs>
</svg>
  