<svg width="20" height="20" viewBox="0 0 20 20" fill="none" xmlns="http://www.w3.org/2000/svg">
  <g clip-path="url(#clip0_1961_10306)">
    <path
      d="M19.9998 5.20039C19.9998 11.5671 11.5581 20.0004 5.19979 20.0004C3.80812 20.0004 2.50812 19.4754 1.54979 18.5171L0.716456 17.5587C-0.250211 16.5921 -0.250211 14.9587 0.758123 13.9504C0.783123 13.9254 2.79146 12.3837 2.79146 12.3837C3.79146 11.4337 5.36646 11.4337 6.35812 12.3837L7.57479 13.3587C10.2415 12.2254 12.1331 10.3254 13.3498 7.56706L12.3831 6.35039C11.4248 5.35872 11.4248 3.77539 12.3831 2.78372C12.3831 2.78372 13.9248 0.775391 13.9498 0.750391C14.9581 -0.257943 16.5915 -0.257943 17.5998 0.750391L18.4748 1.50872C19.4748 2.50039 19.9998 3.80039 19.9998 5.19206V5.20039Z"
      fill="black" />
  </g>
  <defs>
    <clipPath id="clip0_1961_10306">
      <rect width="20" height="20" fill="white" />
    </clipPath>
  </defs>
</svg>
  