<svg width="25" height="25" viewBox="0 0 25 25" fill="none" xmlns="http://www.w3.org/2000/svg">
  <path
    d="M16.0415 10.2912L11.2603 5.50994C11.0651 5.31593 10.8011 5.20703 10.5259 5.20703C10.2507 5.20703 9.98669 5.31593 9.79152 5.50994C9.69389 5.60678 9.61639 5.72199 9.56351 5.84892C9.51063 5.97586 9.4834 6.11201 9.4834 6.24952C9.4834 6.38704 9.51063 6.52319 9.56351 6.65012C9.61639 6.77706 9.69389 6.89227 9.79152 6.98911L14.5832 11.7599C14.6808 11.8568 14.7583 11.972 14.8112 12.0989C14.8641 12.2259 14.8913 12.362 14.8913 12.4995C14.8913 12.637 14.8641 12.7732 14.8112 12.9001C14.7583 13.0271 14.6808 13.1423 14.5832 13.2391L9.79152 18.0099C9.59537 18.2047 9.48463 18.4694 9.48365 18.7458C9.48267 19.0223 9.59155 19.2878 9.78631 19.4839C9.98108 19.6801 10.2458 19.7908 10.5222 19.7918C10.7986 19.7927 11.0641 19.6839 11.2603 19.4891L16.0415 14.7079C16.6267 14.1219 16.9554 13.3277 16.9554 12.4995C16.9554 11.6714 16.6267 10.8771 16.0415 10.2912Z"
    fill="black" />
</svg>
  