<svg width="20" height="20" viewBox="0 0 20 20" fill="none" xmlns="http://www.w3.org/2000/svg">
  <path
    d="M8.33333 15.8333C8.33333 14.9167 9.08333 14.1667 10 14.1667C10.9167 14.1667 11.6667 14.9167 11.6667 15.8333C11.6667 16.75 10.9167 17.5 10 17.5C9.08333 17.5 8.33333 16.75 8.33333 15.8333ZM15.3 12.3C15.7917 11.8083 15.7917 11.0167 15.3 10.5333C12.375 7.60833 7.61667 7.60833 4.69167 10.5333C4.2 11.025 4.2 11.8167 4.69167 12.3C5.18334 12.7833 5.975 12.7917 6.45834 12.3C8.40834 10.35 11.5833 10.35 13.5333 12.3C13.775 12.5417 14.1 12.6667 14.4167 12.6667C14.7333 12.6667 15.0583 12.5417 15.3 12.3ZM19.6083 8.40833C20.1083 7.93333 20.125 7.14167 19.65 6.64167C19.575 6.56667 19.5 6.48333 19.425 6.40833C16.9083 3.89167 13.5583 2.5 10 2.5C6.44167 2.5 3.09167 3.88333 0.575002 6.4C0.500002 6.475 0.425002 6.55833 0.350002 6.63333C-0.124998 7.13333 -0.108332 7.925 0.391668 8.4C0.891668 8.875 1.68333 8.85833 2.15833 8.35833L2.34167 8.16667C4.39167 6.11667 7.10834 4.99167 10 4.99167C12.8917 4.99167 15.6167 6.11667 17.6667 8.16667L17.85 8.35C18.0917 8.60833 18.425 8.73333 18.75 8.73333C19.0583 8.73333 19.375 8.61667 19.6167 8.39167L19.6083 8.40833Z"
    fill="black" />
</svg>
  